<svg xmlns="http://www.w3.org/2000/svg" xmlns:xlink="http://www.w3.org/1999/xlink" width="500" zoomAndPan="magnify" viewBox="0 0 375 298.499991" height="398" preserveAspectRatio="xMidYMid meet" version="1.0"><defs><g/></defs><g fill="#000000" fill-opacity="1"><g transform="translate(0.313551, 229.080558)"><g><path d="M 95.84375 -159.984375 C 80.363281 -148.003906 68.546875 -134.191406 60.390625 -118.546875 C 52.242188 -102.910156 48.171875 -85.859375 48.171875 -67.390625 C 48.171875 -58.066406 49.125 -49.242188 51.03125 -40.921875 C 52.945312 -32.609375 55.859375 -24.625 59.765625 -16.96875 C 63.679688 -9.3125 68.675781 -1.910156 74.75 5.234375 C 80.820312 12.390625 88.019531 19.546875 96.34375 26.703125 L 85.109375 41.671875 C 65.972656 27.535156 51.703125 11.109375 42.296875 -7.609375 C 32.898438 -26.328125 28.203125 -46.085938 28.203125 -66.890625 C 28.203125 -87.515625 32.941406 -107.226562 42.421875 -126.03125 C 51.910156 -144.832031 66.140625 -161.140625 85.109375 -174.953125 L 96.09375 -159.984375 Z M 95.84375 -159.984375 "/></g></g></g><g fill="#60a5fa" fill-opacity="1"><g transform="translate(125.104515, 229.080558)"><g><path d="M 94.84375 0 C 93.175781 -3.320312 91.132812 -6.976562 88.71875 -10.96875 C 86.3125 -14.96875 83.691406 -19.085938 80.859375 -23.328125 C 78.035156 -27.578125 75.082031 -31.78125 72 -35.9375 C 68.925781 -40.09375 65.890625 -44.003906 62.890625 -47.671875 C 59.898438 -43.835938 56.738281 -39.84375 53.40625 -35.6875 C 50.082031 -31.53125 46.878906 -27.328125 43.796875 -23.078125 C 40.722656 -18.835938 37.851562 -14.71875 35.1875 -10.71875 C 32.53125 -6.726562 30.285156 -3.15625 28.453125 0 L 7.234375 0 C 12.722656 -9.976562 19.421875 -20.25 27.328125 -30.8125 C 35.234375 -41.382812 43.015625 -51.410156 50.671875 -60.890625 L 8.984375 -115.796875 L 32.203125 -115.796875 L 63.390625 -75.375 L 92.09375 -115.796875 L 114.0625 -115.796875 L 75.875 -62.140625 C 83.363281 -52.328125 90.890625 -42.09375 98.453125 -31.4375 C 106.023438 -20.789062 112.472656 -10.3125 117.796875 0 Z M 94.84375 0 "/></g></g></g><g fill="#000000" fill-opacity="1"><g transform="translate(249.89548, 229.080558)"><g><path d="M 28.703125 26.703125 C 44.171875 14.722656 56.023438 0.914062 64.265625 -14.71875 C 72.503906 -30.363281 76.625 -47.421875 76.625 -65.890625 C 76.625 -75.203125 75.664062 -84.019531 73.75 -92.34375 C 71.832031 -100.664062 68.878906 -108.648438 64.890625 -116.296875 C 60.898438 -123.953125 55.867188 -131.359375 49.796875 -138.515625 C 43.722656 -145.671875 36.523438 -152.828125 28.203125 -159.984375 L 39.4375 -174.953125 C 58.570312 -160.804688 72.835938 -144.375 82.234375 -125.65625 C 91.640625 -106.9375 96.34375 -87.179688 96.34375 -66.390625 C 96.34375 -56.066406 95.132812 -45.914062 92.71875 -35.9375 C 90.300781 -25.957031 86.722656 -16.347656 81.984375 -7.109375 C 77.242188 2.117188 71.335938 10.851562 64.265625 19.09375 C 57.191406 27.332031 48.914062 34.859375 39.4375 41.671875 L 28.453125 26.703125 Z M 28.703125 26.703125 "/></g></g></g></svg>